<svg xmlns="http://www.w3.org/2000/svg" xmlns:xlink="http://www.w3.org/1999/xlink" width="32"
    zoomAndPan="magnify" viewBox="0 0 1440 809.999993" height="32"
    preserveAspectRatio="xMidYMid meet" version="1.0">
    <g transform=" translate(-1075,-600) scale(2.5)">
    <defs>
        
        <g />
        <clipPath id="a5e82e9b31">
            <path
                d="M 474 147.375 L 965.773438 147.375 L 965.773438 639.148438 L 474 639.148438 Z M 474 147.375 "
                clip-rule="nonzero" />
        </clipPath>
        <clipPath id="7fead47ef1">
            <path
                d="M 719.886719 147.375 C 584.085938 147.375 474 257.460938 474 393.261719 C 474 529.0625 584.085938 639.148438 719.886719 639.148438 C 855.6875 639.148438 965.773438 529.0625 965.773438 393.261719 C 965.773438 257.460938 855.6875 147.375 719.886719 147.375 Z M 719.886719 147.375 "
                clip-rule="nonzero" />
        </clipPath>
        <clipPath id="0a27221502">
            <path
                d="M 0 0.375 L 491.773438 0.375 L 491.773438 492.148438 L 0 492.148438 Z M 0 0.375 "
                clip-rule="nonzero" />
        </clipPath>
        <clipPath id="cb3ca35b27">
            <path
                d="M 245.886719 0.375 C 110.085938 0.375 0 110.460938 0 246.261719 C 0 382.0625 110.085938 492.148438 245.886719 492.148438 C 381.6875 492.148438 491.773438 382.0625 491.773438 246.261719 C 491.773438 110.460938 381.6875 0.375 245.886719 0.375 Z M 245.886719 0.375 "
                clip-rule="nonzero" />
        </clipPath>
        <clipPath id="53302273ee">
            <rect x="0" width="492" y="0" height="493" />
        </clipPath>
        <clipPath id="f370165c94">
            <rect x="0" width="250" y="0" height="426" />
        </clipPath>
    </defs>
    <g transform="matrix(1, 0, 0, 1, 608, 203)">
        <g clip-path="url(#f370165c94)">
            <g fill="#10b981" fill-opacity="1">
                <g transform="translate(0.377124, 328.357847)">
                    <g>
                        <path
                            d="M 20.9375 0 L 20.9375 -5.34375 C 27.238281 -7.257812 31.550781 -11.363281 33.875 -17.65625 C 36.207031 -23.957031 37.375 -35.457031 37.375 -52.15625 L 37.375 -235.328125 C 37.375 -252.296875 36.207031 -263.859375 33.875 -270.015625 C 31.550781 -276.179688 27.238281 -280.222656 20.9375 -282.140625 L 20.9375 -287.484375 L 87.46875 -287.484375 L 87.46875 -282.140625 C 81.175781 -280.222656 76.863281 -276.179688 74.53125 -270.015625 C 72.207031 -263.859375 71.046875 -252.296875 71.046875 -235.328125 L 71.046875 -25.046875 C 71.046875 -12.734375 77.207031 -6.578125 89.53125 -6.578125 L 138.40625 -6.578125 C 158.113281 -6.578125 173.238281 -9.519531 183.78125 -15.40625 C 194.320312 -21.289062 203.148438 -31.898438 210.265625 -47.234375 L 214.796875 -46.40625 L 211.921875 0 Z M 20.9375 0 " />
                    </g>
                </g>
            </g>
        </g>
    </g>
    </g>    
</svg>